<?xml version="1.0" encoding="utf-8"?>
<svg height="24" viewBox="103.956 -908.663 862.46 823.957" width="24" xmlns="http://www.w3.org/2000/svg" xmlns:bx="https://boxy-svg.com">
  <defs>
    <bx:guide x="112.299" y="-619.073" angle="90"/>
    <bx:guide x="336.8983888864559" y="-647.3084673056638" angle="90"/>
    <bx:guide x="308.66310994914977" y="-616.5063092222895" angle="0"/>
    <bx:guide x="593.5828763856407" y="-900.142697284097" angle="0"/>
    <bx:guide x="617.9679222815356" y="-621.6400185557454" angle="0"/>
    <bx:guide x="660.3208529271649" y="-801.3191598051748" angle="0"/>
    <bx:guide x="872.085604072673" y="-538.2175601185103" angle="0"/>
    <bx:guide x="955.5080625099082" y="-545.9180751600136" angle="0"/>
    <bx:guide x="750.1604725105602" y="-181.42613228637947" angle="0"/>
    <bx:guide x="765.5615025935668" y="-99.28707670316805" angle="0"/>
    <bx:guide x="112.29946232466915" y="-864.4925516649637" angle="180"/>
  </defs>
  <path d="M 752.085 -99.465 L 312.085 -99.465 L 312.085 -619.465 L 592.085 -899.465 L 642.085 -849.465 C 646.752 -844.798 650.585 -838.465 653.585 -830.465 C 656.585 -822.465 658.085 -814.798 658.085 -807.465 L 658.085 -793.465 L 614.085 -619.465 L 872.085 -619.465 C 893.418 -619.465 912.085 -611.465 928.085 -595.465 C 944.085 -579.465 952.085 -560.798 952.085 -539.465 L 952.085 -459.465 C 952.085 -454.798 951.418 -449.798 950.085 -444.465 C 948.752 -439.132 947.418 -434.132 946.085 -429.465 L 826.085 -147.465 C 820.085 -134.132 810.085 -122.798 796.085 -113.465 C 782.085 -104.132 767.418 -99.465 752.085 -99.465 Z M 392.085 -179.465 L 752.085 -179.465 L 872.085 -459.465 L 872.085 -539.465 L 512.085 -539.465 L 566.085 -759.465 L 392.085 -585.465 L 392.085 -179.465 Z M 392.085 -585.465 L 392.085 -179.465 L 392.085 -585.465 Z M 312.085 -619.465 L 312.085 -539.465 L 192.085 -539.465 L 192.085 -179.465 L 312.085 -179.465 L 312.085 -99.465 L 112.085 -99.465 L 112.085 -619.465 L 312.085 -619.465 Z"/>
</svg>